<svg xmlns="http://www.w3.org/2000/svg" viewBox="0 0 720.86 60.34"><defs><style>.cls-1{fill:#6b1b13;}.cls-2{fill:#ecb871;}</style></defs><g id="Capa_2" data-name="Capa 2"><g id="Capa_1-2" data-name="Capa 1"><path class="cls-1" d="M81.45,46.05l-.72,0-.82-.22-.63,0-.76-.18-.82-.32-1.21-.67-.64-.54-.36-.73.18-.9.73-.5.67.19.63.4,2,.81.77.14.67,0,1.18.18,1-.18,1.36-.4,1.22-.81.49-.54.45-.55.27-.58.27-.77.18-.68.14-.63v-1l0-1.08,0-.86-.23-.49-.27-.82L87,33.77l-.85-1.08L84.52,31.2l-.63-.36-.59-.45L80.82,29l-1.13-.86L79,27.82l-.45-.68-1.08-1-1-1.63-.55-1.44-.18-1.35-.09-1,.18-1.76.77-2.12.36-.54.54-.36.59-.59.63-.32.45-.49.68-.32L81,13.83h1L83,13.74l1.13-.05.85.09,1.45.37.63.27,1.4.81.36.72-.18.9-.86.63-1-.22-.54-.41-.77-.36h-.76l-.72-.22-1.13-.09-1,.18-1.22.54-.58.45-.46.45-.36.68-.4.49-.14.82.05,2.79.36.64.22.67.45.54.41.63,1.85,1.4,2.48,1.4L87,29.49l2,1.89.41.72.41.64.36.58.49,1.4v.63l.18.77,0,1.13-.09,1.08-.14.77-.13.63-.14.68-.22.67-.32.68-.22.59-.46.72-.58.45-.41.54-.54.5-1.17.85-.68.23L84.34,46l-1.85.18Z"/><path class="cls-1" d="M99.27,46.09,98.64,46l-.59-.23-.58-.17-.5-.32-.5-.36L96,44.56l-.63-1-.32-.68-.31-1.13-.05-.63V39.14l.09-.63.09-.59.18-.67.23-.5.23-.68.4-.54.32-.49.4-.5.46-.36.54-.54.54-.32,1.76-.81.67-.14,1.27-.18,1,.05.85-.09.59.09.63-.23.36-.58-.13-1.31-.09-.63L105,28.9l-.18-.72-.23-.5-.36-.45-.5-.36-.49-.41-.59-.13-1,0-.94-.09-1,.23-.85.31-1.18.73-.63.13-.59-.36L96.2,27l-.09-.72.36-.68.45-.36.59-.27.54-.32,1.18-.49.54-.05.67-.18.64,0,1.85,0,.67.23.91.22.81.41.45.27.49.41.77,1.12.27.59.27.68.27,1.26.18,1.26v1l.09.9,0,1.26,0,.54,0,.64,0,1.94-.09,1.3.09.5L108,40.68l.09,1.53,0,.68,0,.67.14,1.18-.18.72-.95.31L106,45.5,105.5,45l-.09-.67-.27-.23-.36.18-.86.77-.59.4-1,.41-1.17.36Zm2.3-2.44.54-.18,1.13-.54,1-.58.45-.5.36-.72.23-.81v-.59l0-.63,0-3.16v-.5l-.32-.76-.59-.18L102,34.4l-.63.23-1.13.32-1,.72-.41.45-.4.54-.27.45-.27.59-.09.59-.09,1.62v1l.09.54.45,1.13.36.4.54.32.63.27.9.09Z"/><path class="cls-1" d="M126.84,45.68l-.54,0-.68-.23-.36-.45,0-.49-.09-1.31v-.72l0-.59v-.63l0-.68.09-.72,0-3.43,0-.72v-.54L125,33.55l.09-3.79L124.94,28l-.22-.63-.32-.45-.49-.27-.59-.23h-.9l-1.45.09-.67.18-.59.32-.5.32-.94.72-.41.54-.45.77-.23,1.12,0,3.57-.09.54,0,2.26,0,.58,0,.72,0,.59.09,2.62,0,.58,0,1-.09.72.09.64v.63l-.36.54-.54.36h-.63l-.5-.09-.59-.32-.36-.63.09-.63,0-.54,0-1.17,0-.73,0-.67v-.63l0-.59,0-.63,0-.54,0-1.27,0-.72,0-.63,0-.63,0-1v-.54l0-1,0-.63,0-.59,0-.67,0-.68,0-.9,0-.95v-.59l-.18-2.52.13-.55.81-.36h.55l1,.32.4.54v.63l.32.32.5-.18.54-.41.45-.22.54-.36.63-.37.54-.18.63-.27.64-.09.58-.13L124,24l.9.09.68.23,1,.68.41.36.63,1.21.23.59.09.5.13,2.57,0,1.26,0,.68-.09,1,0,6.72.09,4.34.13.54-.27.72-.49.31Z"/><path class="cls-1" d="M135.55,45.41l-.32-.58.05-.68V40.68l0-.63v-.68l-.09-1v-.59l.09-.63-.09-.63v-.77l.05-1.45-.05-1.89.05-1v-.67l-.05-.95.05-1v-.91l-.36-1-2-.59-.32-.54.05-.63.31-.5,2-.63.31-.58.09-2.44,0-.68.09-.76.22-1.18.18-.67.59-1.18.32-.58.36-.5.45-.36,1.08-.77.59-.27,1.22-.32h1.94l1.35.23.63.32.54.4-.09,1-.67.76h-.64l-.58-.22h-1.54l-.9.13-1.08.54-.36.36-.32.46-.36,1.26-.18,1.22,0,1.53-.1,1v.59l.37.67.9.36,1.58,0,1.49.09.94.31.32.46,0,.54-.31.72-.63.22-.59-.09-.68.05h-.58l-1.27,0-.58-.13-.68.31-.27.73-.05,2.61.1.64-.1.54v1.08l.05.81v1.31l-.05,1V44.2l.05.58-.32.59-.54.31-.9.09Z"/><path class="cls-1" d="M149.49,45.68l-.86-.31-.31-.9,0-2.17,0-.72L148.32,40V36l.09-.63,0-.63-.09-8.85-.13-.72.18-.59.45-.31h.9l1,.22.45.68,0,.5.32.45.41-.27.45-.45.45-.41.54-.27,1.17-.54.68-.23,1.22-.22,1.22.22.67.18.45.5.09.77-.18.67-.45.5-.63.09-.63-.18h-.68l-.58-.05-.64.09-.58.23-.59.18-.54.32-.5.27-.9.9-.45.86-.18.85,0,.59,0,.95,0,.72v.9l-.09.63.09.68,0,.59,0,.58,0,1.31,0,1.22-.09,1.26v1.94l.09.64v2l-.09.63-.27.63-.54.27Z"/><path class="cls-1" d="M163.84,20.6l-.59-.36-.31-.54-.18-.95.18-.86.4-.54.45-.41,1,0h.9l.45.4.45.55.14.9-.18,1-.41.4-.5.36-.94.09Zm0,24.86-.36-.54-.13-.54v-.54l-.09-.64,0-.63-.09-2.66.05-1-.05-3.79.05-1-.05-3.88.05-.63-.05-.63v-.5l.05-.72-.09-.59,0-.68,0-.63-.09-.58.22-.73.5-.18.59-.09.58.09.63.23.36.68.05,1.21.09.59v2l0,1,0,1.58,0,.63v2.89l0,.58-.09,1,0,2.16,0,.9v.59l.09.59,0,.72v.63l0,.54v.68l.05.63v.59l-.1.63-.54.31-1.12,0Z"/><path class="cls-1" d="M170.7,57.1l-.45-.59-.14-.63.18-.67.59-.5.63-.18.5-.36.81-1,.54-1.13.13-.63.23-1.4,0-1.17V46.23l.05-.73V44l.05-.72-.1-.86V38.47l.05-.55L173.76,36l.05-.76V34l-.05-.68v-.54l.1-.63-.1-1,.05-.91-.05-.72.05-.54-.05-.68,0-.58,0-.68,0-.59v-.63l-.05-.63.14-.59.59-.36.58.09.59-.09.63.32.36.49.05,1.27.09.68,0,8.16-.09.59,0,.67,0,.68,0,1.72,0,2.25,0,.9v1.27l0,.63,0,1.89,0,.59,0,2.53-.23,1.89,0,.73-.14.58L176,53.27,175,55.11l-.81.86-.5.41-.5.31-.63.28-.58.09-.64.22Zm3.56-36.55-.45-.45-.41-.45-.09-.86.14-.94.36-.59.45-.32,1-.09.95.09.45.36.45.55.05.94-.09.91-.41.54-.45.27-.95.13Z"/><path class="cls-1" d="M187.35,46l-.59,0-1.08-.55-.54-.36-.59-.31-.81-.86-.36-.5-.68-1.21-.45-1.09-.32-1.17L181.57,38l-.13-1.35V34l.13-1.3.09-1.22.09-.68.5-1.85.27-.45.49-1.26.37-.59.76-1,.54-.49.46-.32.76-.41.9-.36.91-.22,1.26-.05h.95l.63.09,1.22.41.49.22.5.32,1,.77.77,1,.63,1.13.22.63.27.5.14.63.22.67.09.55.14.67.09,1.31.18,1.26-.09,1.85,0,.77,0,.63-.32,1.94-.09.5-.58,1.8-.27.68-.32.45-.27.68-.36.45-.5.45-.45.45-.49.41-1,.63L190.5,46l-.67.14H188Zm2.52-2.35.59-.22.54-.18.54-.36.41-.5.4-.63.28-.59.22-.58L193,40l.14-.63,0-.58.14-.77.09-.59,0-.67,0-.73V35l.09-.82-.14-1.85L193.21,31l-.18-.63-.09-.59-.45-1.17-.27-.59-.36-.45-.45-.49-1-.64-.59-.09-.85,0-1,.09-1.13.31-.59.59-.58.77-.59,1-.09.63-.23.63-.22,1.22-.05.68-.09.54-.09,1.35.09,1.9v1.26l.05.72.09.59.5,1.94.22.68.23.45.36.54.4.54.54.45.5.27.68.23Z"/><path class="cls-1" d="M201.69,45.55l-.36-.59-.13-.58-.09-1.18,0-2,0-.68V40l-.05-1v-1l.09-1.17-.09-.64.05-8.3-.05-.72v-.63l.09-.59-.09-3.92.05-.91V18.16l-.09-.63,0-1.22L201,15.09l.23-.63.45-.31.5,0,.58-.09.63.36.46.45.13,3.25,0,.54.09.63-.09,1.72,0,1.22,0,.63,0,1,0,.54v2.07l.09.82-.09,1,0,.55v.67l0,.59.09.68-.05,9v.64l0,1.21.09.59,0,.59,0,.72,0,1.22-.09.63-.5.22-.58,0-.63.13Z"/><path class="cls-1" d="M325.69,54.32l-.81-.18L323.57,54l-.72-.36-.68-.13-1.26-.59-1.22-.77-.63-.54L318,50.71l-.45-.58-.54-.54-.86-1.27-.23-.45-.45-.58-.63-1.36-.32-.81-.18-.59-.13-.76-.23-.64-.36-1.48,0-.77-.18-.63-.18-2.17.09-.77-.05-1.21-.09-1,.09-.77V33.7l.18-1.62.14-.63.13-.81.05-.68.18-.68.58-2.3.86-2,1-1.85.5-.5.41-.72.49-.45.45-.68.59-.41.54-.49.59-.45.58-.27.59-.41.68-.32.58-.36.77-.31.63-.23,2.17-.41.63-.13.77-.09,1,0,1.08,0,.77.18,1.08,0,1.44.41.9.32.68.36.68.13.63.32.68.41.58.4.55.45.45.45.58.46,1.31,1.66.72,1.45.18.59.36.54.37.76.09.68.18.72.45,1.4.27,2.21.09,2.53-.09,1.08v.86l-.23,2-.54,2.84-.22.68-.18.63-.64,1-.49.9-.82.77-.94.72-1.58.36-1.13-.09-.72-.23-.59-.45-.58-.22L332.91,43l-.72-.31-.95.4-.72.82-.58.22-.68.36-1.36.41-1.17.09-1.13-.18-.63-.14-.68-.36-1.21-1-.32-.41-.41-.63-.13-.72-.32-.77V38.71l.09-.86.32-.58.23-.72.67-1.31.45-.41.5-.58,1.22-.77.58-.27,1.4-.45.77-.09h1l1.76-.18.31-.64.05-.81-.09-.77-.09-.67-.23-.59-.4-.72-.45-.5-.68-.27-2.21-.18-1.49.59-.59.45h-.81l-.68-.27,0-.95.4-.77.59-.36.63-.27,2.26-.54,1.08.09,1.13,0,.77.22.67.27.54.23.59.54.5.63.31.54.54,1.45.19,1.53.09,4.56-.09.68.13.72-.09,1.85.05,1.22.13.81.27.76.32.68.54.5.63.36,1.13,0,1-.31.49-.41.63-1.26.27-.59.19-.68.09-.81.31-1.31.09-.76,0-.77.13-.68.05-.67V33.43l-.09-1.17v-.72l-.09-.54v-.82l-.05-.76-.13-.63-.27-.77-.1-.72-.27-.68-.31-.68-.18-.58-.41-.72-.77-1.13-.36-.68-.49-.36-.59-.54-.54-.41-.59-.49-.63-.32-.54-.41-1-.22-1-.41-.67-.13-3.48-.23-.67.18-.77.14-.63-.05-.63.14-1,.4-1.54.81-1.08.86-1.08,1-.5.36-1.53,2.53-.27.72-.27.5-.23.67-.13.73-.46,1.53-.31,1.44-.09.77-.05.81-.09.63.09.73-.13.63-.05,2.25.14.72.09,2.26.27,1.58.45,1.4.18.5.23.9.49,1.22.81,1.35.37.68.45.49.45.59,1.08,1.08.54.41.63.27,1.27.77.58.22,1.18.18,2.39.5,1.44.13.86-.09,1.35-.27.73,0,.85.09.36.72-.18.9-.63.41-.77.22-1.48.23h-.73l-.76,0h-.68l-.68,0Zm2.58-11.59.63-.14.63-.45.54-.31.54-.41.5-1,.22-2.39-.13-.81.09-1.49L331,35l-.77-.41h-1l-1,.14-1.31.45-.58.22-.64.45-.49.59-.27.54-.32,1.45,0,1.08,0,1.13.14.58.36.73.36.45.68.31,1.12.18Z"/><path class="cls-1" d="M351.5,45.93l-.58-.13-.54-.18-.64-.09-.58-.14-.54-.32-1.09-.49-.45-.41-.54-.36-.32-.54.09-.86.27-.49.5-.27.63.13.54.27,1.76,1,1.27.27,1.58.18.94-.14.55-.17.54-.32.49-.5.54-.94.14-.68.05-.95-.1-1.08-.22-.54-.36-.64-.45-.49-.81-.63-.82-.5-.49-.27-1-.36-.85-.41-1.09-.63-1.58-1.08-1.08-1.45-.27-.67-.18-.59-.13-.59-.1-1.85.14-.63.14-.54.27-.54.27-.68.9-.85.5-.23.45-.41,2.12-.49.67,0h1.58l.59.09,1.26.41.59.09.59.32.54.31.4.68v.76l-.18.5-.49.36-.68-.13-.63-.18-.9-.36-.95-.23-.63-.23-1.94.14-.54.27-.55.45-.31.41-.14.58-.09,1,.05,1,.22.5.36.58.46.5.4.22.54.46.59.27L353,33,356,34.52l.9.76.41.41.81,1,.5,1.13.18.54.09.63,0,1.9-.09.59-.36,1.21-.27.59-.72,1.08-.45.45-1.72.82-.63.18-.59.13-.9,0h-.95Z"/><path class="cls-1" d="M367.25,45.93l-.63-.09-.59-.22-.58-.18-.5-.32-.5-.36L364,44.4l-.63-1-.32-.68-.31-1.12-.05-.64V39l.09-.63.09-.58.18-.68.23-.5.22-.67.41-.55.32-.49.4-.5.45-.36.55-.54.54-.32,1.76-.81.67-.13,1.27-.19.94,0,.86-.09.59.09.63-.23.36-.58L373.12,30l-.09-.63-.09-.59-.19-.72-.22-.5-.36-.45-.5-.36-.49-.41-.59-.13-.95,0-.95-.09-1,.23-.86.32-1.17.72-.63.13-.59-.36-.27-.36-.09-.72.36-.68.45-.36.59-.27.54-.32L367.2,24l.55-.05.67-.18.63,0,1.85,0,.68.23.9.22.82.41.45.27.49.41.77,1.12.27.59.27.68.27,1.26.18,1.26v1l.09.9,0,1.26-.05.55.05.63,0,1.94L376,37.77l.09.49L376,40.52l.09,1.53,0,.68,0,.67.14,1.18-.18.72-.95.32-1.17-.27-.45-.55-.09-.67-.27-.23-.37.18-.85.77-.59.41-1,.4L369.1,46Zm2.3-2.43.54-.19,1.13-.54.95-.58.45-.5L373,41l.23-.81v-.59l0-.63,0-3.16v-.5l-.32-.76-.59-.18L370,34.25l-.63.22-1.13.32-1,.72-.41.45-.4.54-.27.45-.27.59-.09.59-.09,1.62v1l.09.54.45,1.13.36.4.54.32.63.27.9.09Z"/><path class="cls-1" d="M394.82,45.53l-.54-.05-.68-.22-.36-.46-.05-.49L393.1,43v-.72l0-.59v-.63l-.05-.68.09-.72,0-3.43,0-.72V35L393,33.39l.09-3.79-.18-1.81-.22-.63-.32-.45-.49-.27-.59-.23h-.9L389,26.3l-.67.18-.59.32-.5.32-.94.72-.41.54-.45.77-.23,1.12,0,3.57-.09.54,0,2.26,0,.58,0,.73,0,.58.09,2.62,0,.59,0,.94-.09.72.09.64v.63l-.36.54-.54.36h-.64l-.49-.09-.59-.32-.36-.63.09-.63,0-.54,0-1.17,0-.72,0-.68v-.63l0-.59,0-.63,0-.54,0-1.27,0-.72,0-.63,0-.63,0-1v-.55l0-1,0-.63,0-.59,0-.67,0-.68,0-.9,0-.95v-.59l-.19-2.52.14-.54.81-.37h.54l1,.32.4.54v.63l.32.32.49-.18.55-.41.45-.22.54-.36.63-.37.54-.18.63-.27.64-.09.58-.13,1.58,0,.9.09.68.23,1,.68.41.36.63,1.21.23.59.09.5.13,2.57,0,1.26,0,.68-.09,1,.05,6.73L396,44l.13.54-.27.72-.49.32Z"/><path class="cls-1" d="M403.53,45.26l-.32-.59.05-.68V40.52l0-.63v-.68l-.09-1v-.59l.09-.63-.09-.63V35.6l.05-1.44-.05-1.9.05-1v-.67l-.05-.95.05-1V27.7l-.36-1-2-.59-.31-.54,0-.63.32-.5,2-.63.31-.58.09-2.44,0-.68.09-.76.22-1.18.18-.67.59-1.18.32-.58.36-.5.45-.36,1.08-.77.59-.27,1.21-.31h1.94l1.36.22.63.32.54.4-.09,1-.68.76h-.63l-.58-.22H409.3l-.9.13-1.08.54-.36.37-.32.45-.36,1.26L406.1,20l0,1.53-.09,1v.59l.36.67.91.36,1.58,0,1.49.09.94.32.32.45,0,.54-.31.72-.63.22-.59-.09-.68.05h-.58l-1.27,0-.58-.13-.68.32-.27.72L406.05,30l.09.64-.09.54v1.08l.05.81v1.31l-.05,1V44l.05.58-.32.59-.54.32-.9.09Z"/><path class="cls-1" d="M417.47,45.53l-.86-.32-.31-.9,0-2.17.05-.72-.09-1.58v-4l.09-.63-.05-.63-.09-8.85-.13-.72.18-.59.45-.31h.9l1,.22.45.68,0,.5.32.45.41-.27.45-.45.45-.41.54-.27,1.17-.54.68-.23,1.22-.22,1.22.22.67.18.45.5.09.77-.18.67-.45.5-.63.09-.63-.18h-.68l-.58-.05-.64.09-.58.23-.59.18-.54.32-.5.27-.9.9-.45.86-.18.85,0,.59,0,.95,0,.72v.9l-.09.63.09.68,0,.59,0,.58,0,1.31,0,1.22-.09,1.26v1.94l.09.64v2l-.09.63-.27.63-.54.27Z"/><path class="cls-1" d="M431.82,20.44l-.59-.36-.31-.54-.19-.95.19-.86.4-.54.45-.41,1,0h.91l.45.4.45.55.14.9-.19,1-.4.4-.5.36-.95.09Zm0,24.86-.36-.54-.13-.54v-.54l-.09-.64,0-.63-.09-2.66,0-1,0-3.79,0-1,0-3.88,0-.63,0-.63v-.5l0-.72-.09-.59,0-.68,0-.63-.09-.58.22-.73.5-.18.58-.09.59.09.63.23.36.68,0,1.21.09.59v2l0,1,0,1.58,0,.63v2.89l0,.58-.09,1,0,2.16,0,.91v.58l.09.59,0,.72v.63l0,.54v.68l0,.63v.59l-.09.63-.54.32-1.13,0Z"/><path class="cls-1" d="M438.68,56.94l-.46-.59-.13-.63.18-.67.59-.5.63-.18L440,54l.82-.95.54-1.13.13-.63.23-1.4,0-1.17V46.07l.05-.72V43.81l0-.72-.09-.86V38.31l.05-.54-.05-2,.05-.76V33.84l-.05-.68v-.54l.09-.63-.09-1,.05-.9-.05-.73.05-.54-.05-.68,0-.58,0-.68,0-.59v-.63l-.05-.63.14-.59.59-.36.58.09.59-.09.63.32.36.5,0,1.26.09.68,0,8.16-.09.59.05.68-.05.67.05,1.72-.05,2.25.05.91v1.26l-.05.63.05,1.9-.05.58.05,2.53-.23,1.89,0,.73-.14.58L444,53.11,443,55l-.82.85-.49.41-.5.32-.63.27-.59.09-.63.22Zm3.56-36.55-.45-.45-.41-.45-.09-.86.14-.94.36-.59.45-.32,1-.09.95.09.45.36.45.55.05.94-.09.91-.41.54-.45.27-.95.13Z"/><path class="cls-1" d="M455.33,45.84l-.59,0-1.08-.54-.55-.37-.58-.31-.81-.86-.37-.49L450.68,42l-.45-1.09-.32-1.17-.36-1.94-.14-1.35V33.89l.14-1.31.09-1.22.09-.68.5-1.85.27-.45.49-1.26.36-.59.77-1,.54-.49.45-.32.77-.41.9-.36.91-.22,1.26-.05h.95l.63.09,1.22.41.49.22.5.32.95.77.76,1,.64,1.13.22.63.27.5.14.63.22.68.09.54.14.67.09,1.31.18,1.27-.09,1.84,0,.77,0,.63L464,39.07l-.09.5-.58,1.8-.27.68-.32.45-.27.68-.36.45-.5.45-.45.45-.5.41-1,.63-1.18.27-.67.14H456Zm2.52-2.34.59-.23.54-.18.54-.36.41-.5.4-.63.27-.59.23-.58.18-.63.14-.64,0-.58.14-.77.09-.59,0-.67,0-.73v-1l.09-.81-.14-1.85-.18-1.27-.18-.63-.09-.59-.45-1.17-.27-.59-.36-.45-.45-.49-1-.64-.59-.09-.86,0-.94.09-1.13.32-.59.58-.58.77-.59,1-.09.63-.23.63-.22,1.22,0,.68-.09.54L452.3,34l.09,1.89v1.26l.05.72.09.59.49,1.94.23.68.23.45.36.54.4.54.54.45.5.27.68.23Z"/><path class="cls-1" d="M469.67,45.39l-.36-.59-.13-.58L469.09,43l0-2,0-.68V39.8l0-1v-1l.09-1.17-.09-.63,0-8.31,0-.72v-.63l.09-.59L469,21.75l0-.9V18l-.09-.63,0-1.22L469,14.93l.23-.63.45-.31.49,0,.59-.09.63.36.45.45.14,3.25-.05.54.09.64-.09,1.71.05,1.22-.05.63.05,1-.05.54v2.07l.09.82-.09,1,.05.55v.67l-.05.59.09.68,0,9v.63l-.05,1.22.09.58,0,.59,0,.72,0,1.22-.09.63-.5.23-.58-.05-.64.14Z"/><path class="cls-1" d="M484.61,45.93h-.86l-.68,0-.54-.14-.58-.4-1.13-.55-.45-.4-.45-.45-.32-.55-.41-.58-.58-1-.14-.59-.27-.58-.27-1.4-.09-.72-.23-1.18-.09-1.3v-1.9l.09-.63.09-.72v-.59l.09-.68.14-.63.09-.59.36-1.3.72-1.81,1.13-1.49.5-.45.54-.27.5-.4.58-.32.54-.23.59-.09.68-.13.9-.05h1l.63.18.55.09,1.21.5.45.27h.5l.32-.45,0-.59.09-1-.13-4,.09-.54v-.68l0-.63-.09-.72.05-.54-.09-.64.18-.67.49-.27h.91l.85.27.36.58L492.5,16l0,.63.09.59-.05.67.05,1.54L492.5,22l.05.58v1.58l-.05.68.05.95-.05.58.05,1.72-.05,1.76.09.72-.09,6.05.05.72v4.78l.18,2.48-.27.64-.54.36-.68-.09-.77-.23-.45-.5-.09-.54-.27-.4-.4.13-.46.45-.49.32-1,.77-.55.09-1.21.36Zm.54-2.39,1-.09.54-.09.49-.23.59-.18.5-.27.49-.45.36-.54.37-.68.22-.85,0-5.42,0-.68-.09-.9,0-3.88-.23-.85-.36-.77-1.58-1.13-1.26-.32-1,0-.9,0-.9.32-.82.36-.85,1-.28.46-.27.63-.18.63-.49,2.53,0,.54-.13,1.26v1l.09,1.67,0,.45.05,1.27.27,1.26.09.72.22.5.23.58.27.64.41.45.45.36,1,.54.63.23Z"/><path class="cls-1" d="M504,45.89l-1.8-.59-.54-.41-.9-.85-1.09-1.49-.27-.59-.49-1.17-.18-.59-.05-.77-.23-.54,0-.67-.09-.64-.09-.67-.05-2.48.23-2.58.23-1.26.45-1.94.22-.63.27-.59.68-1,.81-1.08.45-.36.59-.36,1.71-.73,1.31-.22.9,0,.95.09,1.18.18,1.71.91.95,1,.63,1.08.18.54.18,1.63-.23,1.62-.13.54-.14.63-.31.64L510,34.2l-1.35,1.31-.54.45-1.58.95-.59.22-.68.23-1.17.45-.63.14-.63,0-.68.18-.54.32-.27.63.27,1,.36,1,.95,1.58,1,.72.59.14,1,.09.95-.05.63-.18.68-.09.54-.27.81-.5.82-.63.63-.27.54.27.27.54.09.72-.32.68-.45.45-.54.45-.54.32-.63.23-.63.31-1.22.32-.59.09-2,0Zm-1.3-10,1.26-.37.54-.22,1.13-.59,1.58-1,.4-.49.32-.54.32-.64.22-.58.18-.54.14-.68,0-.95,0-.9-.14-.68-.81-1-.45-.23-.68-.27h-.86l-1.17.14-.95.23-.45.31-.4.36-.41.45-.36.64-.45,1.21-.54,3.12,0,1.26L501,35.19l.36.63.63.23Z"/><path class="cls-1" d="M529.46,45.53l-.54-.05-.68-.22-.36-.46,0-.49L527.74,43v-.72l0-.59v-.63l-.05-.68.09-.72,0-3.43,0-.72V35l-.09-1.58.09-3.79-.18-1.81-.22-.63-.32-.45-.5-.27-.58-.23H525l-1.45.09-.67.18-.59.32-.5.32-1,.72-.4.54-.45.77-.23,1.12.05,3.57-.09.54,0,2.26,0,.58,0,.73,0,.58.09,2.62-.05.59.05.94-.09.72.09.64v.63l-.36.54-.55.36h-.63l-.49-.09-.59-.32-.36-.63.09-.63-.05-.54.05-1.17-.05-.72.05-.68v-.63l-.05-.59.05-.63-.05-.54.05-1.27-.05-.72.05-.63-.05-.63.05-1v-.55l-.05-1L517,32l-.05-.59.05-.67-.05-.68.05-.9-.05-.95v-.59l-.18-2.52.14-.54.81-.37h.54l1,.32.41.54v.63l.32.32.49-.18.54-.41.46-.22.54-.36.63-.37.54-.18.63-.27.63-.09.59-.13,1.58,0,.9.09.68.23,1,.68.41.36.63,1.21.22.59.1.5.13,2.57,0,1.26,0,.68-.09,1,.05,6.73.09,4.33.13.54-.27.72-.5.32Z"/><path class="cls-1" d="M540.83,46l-.68-.09-.59-.18L538,44.8l-.72-1-.5-1.31-.09-.54-.22-2.21v-1l0-.5,0-5.41,0-.54,0-1.27,0-1.58,0-.58,0-.59-.09-.68,0-.67-.14-1.81.23-.68.49-.31h.54l.64-.05.58.36.45.55.05.67v.59l0,.63,0,3.25,0,.68,0,.63,0,.49,0,.73-.09,2.21,0,.63v.54l0,.68v.63l.13,1.85,0,1,.09.54.31,1.31.28.5.45.54.45.22.58.23h1.94l.64-.27.58-.14,1.18-.63.49-.45.45-.49.5-.73.18-.94V39.3L547.6,38l-.09-1.67.09-2.31-.09-.58.09-.59-.05-.72.05-.63-.05-.72.05-.55-.05-.63.05-.67-.09-1.22.09-.72V25.81l-.05-.63.27-.68.68-.32.54.05.59-.05.54.23.27,1,0,.54,0,2.26,0,2.62L550.39,32l.09.63V43.45l.14,1.17-.14.68-.54.27-1.08,0-.68-.32-.45-.45,0-.68-.27-.22L547,44l-1.49,1-1.08.5-.54.23-.59.18-1.58.09Z"/><path class="cls-1" d="M560.77,45.89,559,45.3l-.54-.41-.91-.85-1.08-1.49-.27-.59-.5-1.17-.18-.59,0-.77-.23-.54,0-.67-.09-.64-.09-.67,0-2.48.23-2.58.22-1.26.45-1.94.23-.63.27-.59.68-1,.81-1.08.45-.36.59-.36,1.71-.73,1.31-.22.9,0,1,.09,1.17.18,1.72.91.94,1,.64,1.08.18.54.18,1.63-.23,1.62-.13.54-.14.63-.31.64-.95,1.62-1.36,1.31-.54.45-1.58.95-.58.22-.68.23-1.17.45-.64.14-.63,0-.67.18-.54.32-.28.63.28,1,.36,1,.94,1.58,1,.72.59.14,1,.09.95-.05.63-.18.68-.09.54-.27.81-.5.81-.63.63-.27.55.27.27.54.09.72-.32.68-.45.45-.54.45-.54.32-.64.23-.63.31-1.21.32-.59.09-2,0Zm-1.31-10,1.27-.37.54-.22,1.13-.59,1.58-1,.4-.49.32-.54L565,32l.23-.58.18-.54.13-.68.05-.95-.05-.9-.13-.68-.81-1-.45-.23-.68-.27h-.86l-1.17.14-1,.23-.45.31-.41.36-.4.45-.36.64-.45,1.21-.55,3.12,0,1.26-.09,1.26.36.63.63.23Z"/><path class="cls-1" d="M578.32,45.93l-.58-.13-.55-.18-.63-.09-.58-.14-.54-.32-1.09-.49-.45-.41-.54-.36-.32-.54.09-.86.27-.49.5-.27.63.13.54.27,1.76,1,1.27.27,1.58.18.94-.14.55-.17.54-.32.49-.5.54-.94.14-.68,0-.95-.09-1.08-.22-.54-.36-.64-.45-.49-.82-.63-.81-.5-.49-.27-1-.36-.85-.41-1.09-.63-1.58-1.08-1.08-1.45-.27-.67-.18-.59-.14-.59-.09-1.85.14-.63.14-.54.27-.54.27-.68.9-.85.5-.23.45-.41,2.12-.49.67,0h1.58l.59.09,1.26.41.59.09.59.32L584,25l.4.68v.76l-.18.5-.49.36-.68-.13-.63-.18-.9-.36-.95-.23-.63-.23-1.94.14-.54.27-.55.45-.31.41-.14.58-.09,1,0,1,.22.5L577,31l.46.5.4.22.54.46.59.27.86.49,2.93,1.54.9.76.41.41.81,1,.5,1.13.18.54.09.63,0,1.9-.09.59-.36,1.21-.27.59-.72,1.08-.45.45-1.72.82-.63.18-.59.13-.9,0h-1Z"/><path class="cls-1" d="M596,45.93l-.63-.18-.58-.27-.55-.13-.45-.41-.49-.27-.72-1-.28-.55-.31-.54-.36-1.22-.23-1.8V36.91l-.09-.54.05-.73-.05-.58.05-.63V32.8l0-.54-.09-1.71.05-1.27-.05-1.35.05-.68-.36-.54-1-.41-1.08-.22-.32-.5-.05-.63.37-.59,1-.27h1l.31-.4V23l.05-.64V21.7l-.05-.63V19.13l-.13-1.26.18-.5.45-.45,1.17.14.68.27.36.49.13,1.27v1.3l0,.5-.09,2.35.36.67.63.23,1.27-.05,1.21.05,1.27-.05.58.41.36.54v.54l-.31.5-.68.27-.54.09-.68-.05h-1.26l-.63,0-.59,0-.63.28-.27.63V28l0,.64.09.67-.09,6.41.09.9v2.35l.19,1.17.27,1.26.58,1.13,1,.77.9.18,1.54-.05.58-.09.63-.22.73,0,.49.37.14.54-.18.72-.59.45-1.22.36-.67.14-.64.18L597,46Z"/><path class="cls-1" d="M606.7,45.53l-.85-.32-.32-.9,0-2.17,0-.72-.09-1.58v-4l.09-.63,0-.63-.09-8.85-.13-.72.18-.59.45-.31h.9l1,.22.45.68.05.5.31.45.41-.27.45-.45.45-.41.54-.27,1.18-.54.67-.23,1.22-.22,1.22.22.68.18.45.5.09.77-.18.67-.45.5-.64.09-.63-.18h-.67l-.59-.05-.63.09-.59.23-.59.18-.54.32-.49.27-.91.9-.45.86-.18.85,0,.59,0,.95,0,.72v.9l-.09.63.09.68,0,.59,0,.58,0,1.31,0,1.22-.09,1.26v1.94l.09.64v2l-.09.63-.27.63-.54.27Z"/><path class="cls-1" d="M623.17,45.93l-.63-.09-.59-.22-.58-.18-.5-.32-.49-.36-.46-.36-.63-1-.31-.68-.32-1.12,0-.64V39l.09-.63.09-.58.18-.68.22-.5.23-.67.4-.55.32-.49.41-.5L621,34l.54-.54.54-.32,1.76-.81.68-.13,1.26-.19,1,0,.85-.09.59.09.63-.23.36-.58L629,30l-.09-.63-.09-.59-.18-.72-.23-.5-.36-.45-.5-.36-.49-.41-.59-.13-1,0-.94-.09-1,.23-.85.32-1.18.72-.63.13-.58-.36-.28-.36-.09-.72.37-.68.45-.36.58-.27.54-.32,1.18-.49.54-.05.68-.18.63,0,1.85,0,.67.23.91.22.81.41.45.27.5.41.76,1.12.27.59.27.68.28,1.26.18,1.26v1l.09.9,0,1.26,0,.55,0,.63,0,1.94-.09,1.31.09.49-.09,2.26.09,1.53,0,.68,0,.67.13,1.18-.18.72-1,.32-1.17-.27-.45-.55-.09-.67L629,43.9l-.36.18-.86.77-.59.41-1,.4L625,46Zm2.3-2.43.55-.19,1.12-.54,1-.58.45-.5.36-.72.23-.81v-.59l0-.63,0-3.16v-.5l-.32-.76-.58-.18-2.35-.09-.63.22-1.13.32-1,.72-.4.45-.41.54L622,37l-.27.59-.09.59-.09,1.62v1l.09.54.45,1.13.36.4.54.32.63.27.91.09Z"/><path class="cls-1" d="M643.39,45.93l-.64-.18-.58-.27-.54-.13-.45-.41-.5-.27-.72-1-.27-.55-.32-.54L639,41.37l-.23-1.8V36.91l-.09-.54,0-.73,0-.58,0-.63V32.8l0-.54-.09-1.71,0-1.27,0-1.35,0-.68-.36-.54-1-.41-1.08-.22-.32-.5,0-.63.36-.59,1-.27h1l.31-.4V23l0-.64V21.7l0-.63V19.13l-.13-1.26.18-.5.45-.45,1.17.14.68.27.36.49.14,1.27v1.3l0,.5-.09,2.35.36.67.63.23,1.27-.05,1.22.05,1.26-.05.59.41.36.54v.54l-.32.5-.68.27-.54.09-.67-.05H643.7l-.63,0-.59,0-.63.28-.27.63V28l0,.64.09.67-.09,6.41.09.9v2.35l.18,1.17.27,1.26.58,1.13,1,.77.9.18,1.54-.05.59-.09.63-.22.72,0,.49.37.14.54-.18.72-.59.45-1.21.36-.68.14-.63.18-1,.09Z"/><path class="cls-1" d="M653.76,20.44l-.58-.36-.32-.54-.18-.95.18-.86.41-.54.45-.41,1,0h.9l.45.4.46.55.13.9-.18,1-.41.4-.49.36-1,.09Zm0,24.86-.36-.54-.14-.54v-.54l-.09-.64,0-.63-.09-2.66,0-1,0-3.79,0-1,0-3.88,0-.63,0-.63v-.5l0-.72-.09-.59,0-.68,0-.63-.09-.58.23-.73.49-.18.59-.09.59.09.63.23.36.68,0,1.21.09.59v2l.05,1-.05,1.58.05.63v2.89l0,.58-.1,1,.05,2.16-.05.91v.58l.1.59,0,.72v.63l0,.54v.68l0,.63v.59l-.09.63-.54.32-1.13,0Z"/><path class="cls-1" d="M666.67,45.89l-1.81-.59-.54-.41-.9-.85-1.08-1.49-.27-.59-.5-1.17-.18-.59,0-.77-.22-.54,0-.67-.09-.64-.09-.67,0-2.48.22-2.58.23-1.26.45-1.94L662,28l.27-.59.67-1,.82-1.08.45-.36.58-.36,1.72-.73,1.31-.22.9,0,.95.09,1.17.18,1.71.91,1,1,.63,1.08.18.54.18,1.63-.22,1.62-.14.54-.13.63-.32.64-.95,1.62-1.35,1.31-.54.45-1.58.95-.59.22-.67.23-1.18.45-.63.14-.63,0-.68.18-.54.32-.27.63.27,1,.36,1,1,1.58,1,.72.59.14,1,.09,1-.05.63-.18.67-.09.55-.27.81-.5.81-.63.63-.27.54.27.27.54.09.72-.31.68-.45.45-.54.45-.55.32-.63.23-.63.31-1.22.32-.58.09-2,0Zm-1.31-10,1.26-.37.55-.22,1.12-.59,1.58-1,.41-.49.31-.54.32-.64.23-.58.18-.54.13-.68,0-.95,0-.9-.13-.68-.82-1-.45-.23-.67-.27h-.86l-1.17.14-1,.23-.45.31-.41.36-.41.45-.36.64-.45,1.21-.54,3.12.05,1.26-.09,1.26.36.63.63.23Z"/><path class="cls-1" d="M680.7,45.53l-.86-.32-.31-.9,0-2.17,0-.72-.09-1.58v-4l.09-.63,0-.63-.09-8.85-.13-.72.18-.59.45-.31h.9l1,.22.45.68.05.5.31.45.41-.27.45-.45.45-.41.54-.27,1.17-.54.68-.23,1.22-.22,1.22.22.67.18.46.5.09.77-.19.67-.45.5-.63.09-.63-.18h-.68l-.58-.05-.63.09-.59.23-.59.18-.54.32-.5.27-.9.9-.45.86-.18.85,0,.59,0,.95,0,.72v.9l-.09.63.09.68,0,.59,0,.58,0,1.31,0,1.22-.09,1.26v1.94l.09.64v2l-.09.63-.28.63-.54.27Z"/><path class="cls-1" d="M695.41,45.53l-.86-.32-.31-.9,0-2.17.05-.72-.09-1.58v-4l.09-.63-.05-.63-.09-8.85-.13-.72.18-.59.45-.31h.9l.95.22L697,25l0,.5.32.45.41-.27.45-.45.45-.41.54-.27,1.17-.54.68-.23,1.22-.22,1.22.22.67.18.45.5.1.77-.19.67-.45.5-.63.09-.63-.18h-.68l-.58-.05-.63.09-.59.23-.59.18-.54.32-.5.27-.9.9-.45.86-.18.85.05.59-.05.95.05.72v.9l-.09.63.09.68-.05.59.05.58L697.17,37l.05,1.22-.09,1.26v1.94l.09.64v2l-.09.63-.28.63-.54.27Z"/><path class="cls-1" d="M711.88,45.93l-.63-.09-.59-.22-.58-.18-.5-.32-.5-.36-.45-.36-.63-1-.32-.68-.31-1.12,0-.64V39l.09-.63.09-.58.18-.68.23-.5.23-.67.4-.55.32-.49.4-.5.45-.36.55-.54.54-.32,1.76-.81.67-.13L714.5,32l.94,0,.86-.09.59.09.63-.23.36-.58L717.75,30l-.09-.63-.1-.59-.18-.72-.22-.5-.36-.45-.5-.36-.49-.41-.59-.13-1,0-.95-.09-1,.23-.86.32-1.17.72-.63.13-.59-.36-.27-.36-.09-.72.36-.68.45-.36.59-.27.54-.32,1.17-.49.55-.05.67-.18.64,0,1.84,0,.68.23.9.22.82.41.45.27.49.41.77,1.12.27.59.27.68.27,1.26.18,1.26v1l.09.9,0,1.26,0,.55,0,.63,0,1.94-.09,1.31.09.49-.09,2.26.09,1.53,0,.68,0,.67.14,1.18-.18.72-.95.32-1.17-.27-.45-.55-.09-.67-.27-.23-.37.18-.85.77-.59.41-1,.4-1.17.36Zm2.3-2.43.54-.19,1.13-.54.95-.58.45-.5.36-.72.23-.81v-.59l-.05-.63.05-3.16v-.5l-.32-.76-.59-.18-2.34-.09-.63.22-1.13.32-1,.72-.41.45-.4.54-.27.45-.27.59-.09.59-.09,1.62v1l.09.54.45,1.13.36.4.54.32.63.27.9.09Z"/><path class="cls-1" d="M278.9,3.36H254.84A14.82,14.82,0,0,0,240,18.17V42.23a14.83,14.83,0,0,0,14.82,14.82H278.9a14.83,14.83,0,0,0,14.81-14.82V18.17A14.82,14.82,0,0,0,278.9,3.36ZM289,42.23A10.07,10.07,0,0,1,278.9,52.29H254.84a10.07,10.07,0,0,1-10.06-10.06V18.17A10.07,10.07,0,0,1,254.84,8.12H278.9A10.06,10.06,0,0,1,289,18.17Z"/><path class="cls-1" d="M266.87,16.37A13.84,13.84,0,1,0,280.7,30.2a13.85,13.85,0,0,0-13.83-13.83Zm0,22.9a9.07,9.07,0,1,1,9.07-9.07,9.08,9.08,0,0,1-9.07,9.07Z"/><path class="cls-1" d="M281.28,12.33a3.5,3.5,0,1,0,2.47,1,3.51,3.51,0,0,0-2.47-1Z"/><path class="cls-2" d="M279.42,3.52a14.2,14.2,0,0,1,14.2,14.2V42.83A14.2,14.2,0,0,1,279.42,57H254.31a14.2,14.2,0,0,1-14.2-14.2V17.72a14.2,14.2,0,0,1,14.2-14.2h25.11m0-3.32H254.31a17.54,17.54,0,0,0-17.52,17.52V42.83a17.53,17.53,0,0,0,17.52,17.51h25.11a17.53,17.53,0,0,0,17.52-17.51V17.72A17.54,17.54,0,0,0,279.42.2Z"/><path class="cls-1" d="M29.63,56.17V35.37h5.48L35.93,29h-6.3V24.94c0-1.84.51-3.1,3.15-3.1h3.37V16.15a44.37,44.37,0,0,0-4.91-.25c-4.86,0-8.19,3-8.19,8.41V29H17.56v6.37h5.49v20.8Z"/><path class="cls-1" d="M42.32,3.32H18.26A14.84,14.84,0,0,0,3.44,18.14V42.2A14.83,14.83,0,0,0,18.26,57H42.32A14.83,14.83,0,0,0,57.14,42.2V18.14A14.84,14.84,0,0,0,42.32,3.32Zm10,38.88a10.06,10.06,0,0,1-10,10H18.26a10.06,10.06,0,0,1-10-10V18.14A10.07,10.07,0,0,1,18.26,8.08H42.32a10.07,10.07,0,0,1,10,10.06Z"/><path class="cls-2" d="M42.63,3.32a14.2,14.2,0,0,1,14.2,14.2V42.63a14.2,14.2,0,0,1-14.2,14.2H17.52a14.2,14.2,0,0,1-14.2-14.2V17.52a14.2,14.2,0,0,1,14.2-14.2H42.63m0-3.32H17.52A17.54,17.54,0,0,0,0,17.52V42.63A17.54,17.54,0,0,0,17.52,60.15H42.63A17.54,17.54,0,0,0,60.15,42.63V17.52A17.54,17.54,0,0,0,42.63,0Z"/></g></g></svg>