<svg xmlns="http://www.w3.org/2000/svg" viewBox="0 0 1109.57 292.15"><defs><style>.cls-1{fill:#c1272d;}.cls-2{fill:#f9fbfb;}.cls-3{fill:#fafbfb;}.cls-4{fill:#fafcfc;}.cls-5,.cls-6{fill:#fff;}.cls-6{fill-rule:evenodd;}.cls-7{fill:#f9df5d;}.cls-8{fill:#01623a;}.cls-9{fill:#f76d3e;}.cls-10{fill:#b84340;}.cls-11{fill:#74b457;}.cls-12{fill:#70567a;}.cls-13{fill:#e57e4a;}.cls-14{fill:#7a1c15;}.cls-15{fill:#fbb03b;}.cls-16{fill:#a67c52;}.cls-17{fill:#e6e6e6;}.cls-18{fill:#534741;}.cls-19{fill:#8cc63f;}.cls-20{fill:#1995b6;}.cls-21{fill:#a1bc31;}</style></defs><g id="Capa_2" data-name="Capa 2"><g id="Capa_1-2" data-name="Capa 1"><rect class="cls-1" y="40.39" width="1082.24" height="169.13" rx="20.41"/><path class="cls-2" d="M317.75,130.65c0-1.48,0-3,0-4.44q-.35-18.83-.69-37.64c0-1.69.07-3.37.13-5.06.09-2.72,1.42-4.71,4.09-5.09a81.84,81.84,0,0,1,11.27-.84c2.64,0,4.35,2,4.32,4.75-.07,6.34-.27,12.67-.54,19-.47,11-1.23,21.92-1.51,32.89-.3,12-.18,23.94-.25,35.92,0,.4-.1.81-.09,1.21.13,5.37-4.1,7.67-8.64,8.13a17,17,0,0,1-2.26,0c-4.69-.13-6.19-1.31-7.91-5.64-4.61-11.62-9.29-23.2-13.95-34.79a3.33,3.33,0,0,0-1.09-1.46c-.13,1.16-.31,2.32-.37,3.48-.49,10.62-.94,21.24-1.43,31.86-.22,4.83-2.19,6.72-7,6.64-2.55-.05-5.11-.23-7.65-.52s-4-1.78-3.85-4.46c.56-11,1.15-21.92,1.84-32.88.41-6.61.89-13.22,1.58-19.8,1.17-11.2,2.49-22.39,3.83-33.58.4-3.37,2.24-5.1,5.22-5.35a4.76,4.76,0,0,1,5,2.94q6.59,14.89,13.12,29.81c2,4.64,3.94,9.32,5.91,14a10.26,10.26,0,0,0,.56,1Z"/><path class="cls-3" d="M97,134.38c.24-2.23.46-4.46.72-6.68,1.52-12.86,2.53-25.79,5.41-38.46a33.63,33.63,0,0,1,1.43-4.84,7.07,7.07,0,0,1,6.08-4.6,17.05,17.05,0,0,1,8.07.73c3.14,1.11,4.54,3.13,4.16,6.54-.56,4.91-1.24,9.8-1.77,14.71q-2.28,21.14-4.47,42.28c-.81,7.76-1.84,15.48-4.2,22.94a32.13,32.13,0,0,1-2.82,6.54c-2.1,3.6-5.56,4.66-9.47,3.2a14.31,14.31,0,0,1-7-5.81,115.15,115.15,0,0,1-10.67-20.74c-1-2.62-2-5.26-3-7.88l-.45,0c-.34,2-.62,4-1,6C76.46,156.2,75,164,73.34,171.81c-1.07,4.92-4,6.3-8.71,4.44a37.91,37.91,0,0,1-4.45-2c-3.68-2-4.83-4.37-4.14-8.5,1-5.85,2-11.69,3.1-17.51,2.25-11.45,4.45-22.91,7-34.31,1.19-5.44,2.92-10.77,4.62-16.08a23,23,0,0,1,3-6.23c3.12-4.39,8.54-4.38,11.17.29a47.14,47.14,0,0,1,4.45,11.47C91.85,113,94,122.8,96.21,132.53c.14.62.32,1.23.48,1.84Z"/><path class="cls-4" d="M360.7,153.8C359.41,161,358.18,168,356.92,175a17.45,17.45,0,0,1-.81,3.2c-1.17,3.11-3.22,4.35-6.52,4-2.54-.27-5.09-.5-7.6-.95-4.16-.76-5-1.94-4.32-6.07,1.59-10.22,3.1-20.45,4.82-30.64,2.85-16.85,6.26-33.58,11.51-49.87,1.14-3.54,2.32-7.06,3.62-10.54a11.54,11.54,0,0,1,2-3.42c3.42-4,8-4.15,11.1.07a49.91,49.91,0,0,1,5.89,10.6c5,12,8.17,24.57,11.43,37.11,4.07,15.68,7.94,31.41,11.88,47.13a12.94,12.94,0,0,1,.32,2.41c.19,3.52-1.45,6.09-4.85,6.9a66.47,66.47,0,0,1-9.11,1.34c-2.38.23-3.78-1.31-4.89-3.28-2.22-3.91-3-8.26-4-12.56-1.11-4.81-2.25-9.61-3.3-14.43-.22-1-.59-1.31-1.59-1.36C368.71,154.39,364.9,154.09,360.7,153.8Zm3.09-13,6.9.43c-1.18-5-2.3-9.81-3.43-14.59H367C365.92,131.32,364.88,136,363.79,140.85Z"/><path class="cls-2" d="M239.57,125.41c-6.64-3.24-9.69-8.48-10.29-15.26A25,25,0,0,1,233,95c6.76-11.59,17.25-16.59,30.19-17.32a57.65,57.65,0,0,1,6.44,0c3.28.19,5,2,5,5.29,0,2.73-.06,5.46-.19,8.19-.18,3.59-2.17,5.28-5.72,5.76a85.82,85.82,0,0,0-11.56,2.36c-3.43,1-6.1,3.32-8.35,6a9.12,9.12,0,0,0-1.51,2.73c-.83,2.34-.07,4.2,2.26,5.09a17.56,17.56,0,0,0,5.05,1.15c2.83.19,5.69,0,8.54.1,3.66.08,5.3,1.76,5.4,5.37.06,2.21.22,4.41.22,6.62,0,3.85-1.43,5.6-5.12,6.63-3.29.93-6.63,1.75-9.83,2.94a16.12,16.12,0,0,0-8,6,14.23,14.23,0,0,0-2.28,5.54c-.56,3.73,2,6,4.88,7.52a23.68,23.68,0,0,0,7.38,2.45,25.83,25.83,0,0,0,10.86-.72c4.83-1.26,8.78.53,8.61,6.1A50.2,50.2,0,0,1,274,172c-.72,3.29-3.08,5.18-6.16,6.33-7.71,2.89-15.59,3.23-23.69,2.21-9.52-1.21-15-7.16-18.89-15.23-5.72-11.95-1.76-24.65,6.49-33.64,1.81-2,4.19-3.46,6.32-5.15C238.42,126.15,238.86,125.89,239.57,125.41Z"/><path class="cls-2" d="M176.85,124.44a75.29,75.29,0,0,1-5.94,31.8,45.13,45.13,0,0,1-12.17,17C149,181.86,136.27,179,129,170.41c-5-5.91-7-13-7.09-20.53a113.22,113.22,0,0,1,6.55-41.25,41.39,41.39,0,0,1,7.05-12.76c5.74-6.72,12.72-11,22-10.33a15.59,15.59,0,0,1,13.94,9.52,58.74,58.74,0,0,1,5.42,23.45C176.89,120.25,176.85,122,176.85,124.44ZM159.37,122a41.48,41.48,0,0,0-.07-6.6,37.43,37.43,0,0,0-2.19-7.45c-.63-1.6-2.19-2-3.85-1.5a10,10,0,0,0-5.47,3.53c-7,9.2-10.23,19.73-10.22,31.19a23,23,0,0,0,1.94,8.76c2.51,5.85,9.49,6.46,13.13,1.25a30.63,30.63,0,0,0,3.64-6.91A55.79,55.79,0,0,0,159.37,122Z"/><path class="cls-2" d="M200.39,133c.91-3.59,1.75-7.2,2.74-10.76q4.22-15.19,8.54-30.36.93-3.27,2-6.49c1.07-3.25,2.9-4.76,6.28-4.77a26,26,0,0,1,6.52.79c3,.78,4.67,2.84,4.29,5.91a68.79,68.79,0,0,1-2.4,11.56q-7,23.19-14.36,46.27-3.57,11.29-7.65,22.43a38.9,38.9,0,0,1-4.18,7.81c-1.51,2.31-3.71,4-6.72,3.51-3.23-.57-6.05-2-6.85-5.56-1.21-5.38-2.73-10.74-3.37-16.19-1.81-15.35-3.26-30.73-4.8-46.11-.75-7.46-1.4-14.93-2.05-22.39a27.6,27.6,0,0,1,0-4.36,4.08,4.08,0,0,1,3-3.87c3-.9,6-1.73,9.09-2.43a4.48,4.48,0,0,1,5.7,4.32c.42,5.32.5,10.68.9,16,.85,11.29,1.8,22.58,2.72,33.87,0,.26.07.52.11.79Z"/><path class="cls-3" d="M513.2,169.49q-35.09,0-70.19,0c-3.35,0-6.71.13-10.06.29-2.09.11-3.83-.3-5-2.23-1.36-2.25-1.95-4.62-.16-6.75a49.07,49.07,0,0,1,6.8-6.87c5.43-4.34,11.14-8.31,16.61-12.61,5.71-4.48,5.29-3.61,1.07-8.58-7.55-8.9-15.39-17.53-23.1-26.29-1.53-1.74-3.16-3.52-2-6.12s3.48-3,5.94-3c12-.14,24-.32,36.05-.42,8.07-.07,16.15,0,24.22,0q29.77-.14,59.57-.35c10-.08,20-.37,30-.51a45.57,45.57,0,0,1,7.93.32,13.61,13.61,0,0,1,5.42,2.24c2,1.42,1.66,4.2-.33,5.94a291.32,291.32,0,0,0-25.22,25c-.93,1-.64,1.74.13,2.55,5.31,5.59,10.58,11.22,15.93,16.77,3.11,3.22,6.36,6.3,9.48,9.52a10.64,10.64,0,0,1,2,2.91c1.25,2.76.07,5.29-2.75,6.41a17.78,17.78,0,0,1-6.71,1.18c-20.92.08-41.84.26-62.76.4-4.3,0-8.6,0-12.9,0Zm-40.88-35.58H473c0,6.83-.06,13.65,0,20.48.05,4.33,4.09,7.05,8,5.07a44.06,44.06,0,0,0,9.65-6.39,34.27,34.27,0,0,0,11.3-24c.31-5-.16-10-2.66-14.39-4.1-7.3-11.84-10.32-20.85-8.42-4.53,1-6.09,3-6.07,7.67C472.35,120.6,472.32,127.26,472.32,133.91Zm45.18-.64a19.78,19.78,0,0,0-6.79,10.4c-1.82,6.47.65,12.08,6.28,15.05,7.07,3.74,14,2.54,21-.14a3.87,3.87,0,0,0,2.2-5,4.08,4.08,0,0,0-4.8-2.62c-1.73.37-3.42.87-5.12,1.34a11.62,11.62,0,0,1-9.69-1.17,4.28,4.28,0,0,1-1.88-2.33c-.79-3.64,1.76-8.07,5.27-9.4,1.65-.62,3.38-1,5.06-1.54a5.13,5.13,0,0,0,3.73-4.83c-.06-2.08-1.41-3.53-3.9-4.15-.8-.2-1.61-.35-2.41-.55-6.15-1.54-6.84-5.08-3.13-10a7.17,7.17,0,0,1,.83-.91,15.52,15.52,0,0,1,10.3-4.85,3.82,3.82,0,0,0,.63-7.54,10.34,10.34,0,0,0-3.84-.11A23.52,23.52,0,0,0,516,114.47c-2.5,3.39-3.94,7.23-3.1,11.6A12.37,12.37,0,0,0,517.5,133.27Z"/><path class="cls-3" d="M481.2,150c-.12-2.4-.28-4.39-.32-6.37-.17-9.25-.27-18.49-.5-27.74,0-1.6.5-2,2-2,6.83-.18,10.42,3,11.1,10.2.92,9.73-2.49,17.79-9.78,24.23A24.59,24.59,0,0,1,481.2,150Z"/><path class="cls-5" d="M678.26,124.61a50,50,0,0,0,4.07-3.56c2.45-2.69,4.67-5.59,7.18-8.23a7.67,7.67,0,0,1,3.82-2.37c2.52-.45,4.57,2.28,4,4.86a3.7,3.7,0,0,1-.56,1.39c-4.54,6.12-9.11,12.24-16.1,15.84a2.29,2.29,0,0,0-1.41,2.64c.82,11.65,1.58,23.31,2.36,35,0,.56.08,1.13.08,1.69,0,2.36-1.14,4-3.11,4.31a3.9,3.9,0,0,1-4.67-2.87,39.77,39.77,0,0,1-.91-7.07c-.69-9.65-1.3-19.3-1.94-29a7.73,7.73,0,0,0-.2-1,68.65,68.65,0,0,1-18.34,2.13c-.57,0-1.13,0-1.7,0-2.83-.17-2.87-.19-3.74,2.63q-4,12.78-7.86,25.58c-.24.77-.3,1.6-.49,2.39a3.93,3.93,0,0,1-4,3.27,3.74,3.74,0,0,1-3.62-3.47,12.42,12.42,0,0,1,.53-4.61c4.9-15.78,9.76-31.56,14.88-47.26,2.62-8.05,5.7-16,8.7-23.88a18.69,18.69,0,0,1,2.87-4.84c3.46-4.38,8.75-4.48,11.91.09a24.56,24.56,0,0,1,3.94,8.85c1.6,7.92,2.64,16,3.9,24C678,122,678.06,123,678.26,124.61Zm-27.64,5.51c6.63.26,12.72-.16,18.62-2.17.38-.13.76-1.11.69-1.64-1.27-9.06-2.55-18.12-4-27.16a27.85,27.85,0,0,0-1.68-4.82l-.63,0C658.05,105.71,655,118,650.62,130.12Z"/><path class="cls-5" d="M845.27,155.28c.26-6.59.55-13.18.78-19.77.37-10.42.7-20.84,1.06-31.26a4,4,0,0,1,3.75-4.2,4,4,0,0,1,4.23,3.49,32.78,32.78,0,0,1,.07,5.43c-.27,10.11-.53,20.23-.89,30.33-.42,11.93-.94,23.86-1.41,35.78a5.16,5.16,0,0,1-3.07,5,4.18,4.18,0,0,1-6-2.54q-2.62-6.76-4.85-13.67c-4.36-13.51-8.64-27-13-40.56a1.24,1.24,0,0,0-.77-.78c-.47,3.63-.93,7.27-1.42,10.9q-2.36,17.27-4.72,34.52c-.19,1.43-.31,2.88-.51,4.3a3.76,3.76,0,0,1-3.53,3.55,3.66,3.66,0,0,1-4.1-3.09,20.44,20.44,0,0,1,.13-5.41c1.94-15.2,3.88-30.4,5.94-45.58.54-4,1.43-7.91,2.26-11.84a5.45,5.45,0,0,1,2.92-4.16c2.32-1.1,5-.66,6.22,1.77A93.63,93.63,0,0,1,833.62,120c3.66,11.16,7.07,22.4,10.58,33.6.2.63.48,1.24.72,1.85Z"/><path class="cls-5" d="M993.21,122.05c2.23-1.86,4.19-3.44,6.09-5.1a4.37,4.37,0,0,1,5.37-.53,4.1,4.1,0,0,1,1.05,5.4,6,6,0,0,1-1,1.39c-2.84,2.79-5.87,5.36-9.7,6.66a2.22,2.22,0,0,0-1.72,2.61c.29,10.51,0,21-2.12,31.33a33.27,33.27,0,0,1-4.81,12.59c-3.54,5.19-8.4,5.62-12.81,1.14A16.54,16.54,0,0,1,969,168.8c-.9-4.93-2-9.92-2.08-14.9-.27-14.76-.21-29.53,0-44.29.07-5.53,3.41-9.72,7.74-12.64,5.24-3.54,12.47-.62,15,5.89a46.15,46.15,0,0,1,2.2,9.3c.47,2.72.59,5.49.87,8.24C992.85,120.75,993,121.09,993.21,122.05ZM979,171.62l.82-.1a33,33,0,0,0,1.94-4.41c3.33-11.67,3.57-23.63,3.1-35.64a1.6,1.6,0,0,0-.65-1.19c-3-1.44-6.08-2.81-9.19-4.22a7.89,7.89,0,0,0-.11,1.06c0,7.85-.15,15.7.18,23.53A138.18,138.18,0,0,0,977,166.31C977.26,168.14,978.31,169.85,979,171.62Zm5.63-50.13c-.42-3.7-.7-7.13-1.23-10.51a19.81,19.81,0,0,0-1.57-5.36c-1.05-2.2-3.1-2.21-4.29-.11a12.07,12.07,0,0,0-1.41,3.64C975.13,114.67,978,118.58,984.65,121.49Z"/><path class="cls-5" d="M738,142.58a70,70,0,0,1-4,21.81,23.63,23.63,0,0,1-6.4,9.86c-4.71,4.37-10,4.67-15.22.86a20.93,20.93,0,0,1-6.3-7.87,47.76,47.76,0,0,1-4.7-19.46c-.6-14.46.57-28.77,5.17-42.6A32.33,32.33,0,0,1,711,96.75a11.2,11.2,0,0,1,15.88-2.66,36.79,36.79,0,0,1,6.68,6.52,3.88,3.88,0,0,1-.67,5.82c-1.86,1.29-4,.74-5.76-1.32a27.42,27.42,0,0,0-3.25-3.39c-2.93-2.48-5.27-2-7.28,1.26-2.44,4-3.56,8.43-4.45,12.94a122.86,122.86,0,0,0-2.32,33c.41,5.44,1.45,10.74,4.2,15.51a18.76,18.76,0,0,0,3.64,4.23c1.29,1.2,2.72.93,4-.24,3-2.61,4.41-6.07,5.43-9.73a61.8,61.8,0,0,0,2.35-19.37c-.07-1.45-.58-1.89-1.92-1.77-1.87.17-3.75.23-5.62.42a4.12,4.12,0,0,1-4.57-2.81,3.82,3.82,0,0,1,2-4.75,9.27,9.27,0,0,1,3.41-.93c2.51-.16,5-.19,7.54-.1,3.71.13,6.2,2.13,6.92,5.76A74.07,74.07,0,0,1,738,142.58Z"/><path class="cls-5" d="M885.24,153.54c-4.11.91-8,1.72-11.77,2.65-.41.1-.82.92-.9,1.45-1,6.71-2,13.42-2.82,20.14-.38,2.89-1.93,4.58-4.37,4.4s-3.92-2.13-3.59-5c.7-6.3,1.45-12.61,2.39-18.88q3.26-21.6,6.75-43.18a58.14,58.14,0,0,1,1.76-6.93,14.86,14.86,0,0,1,1.4-3.28c2.34-4.1,7.13-4.48,9.62-.5a27.89,27.89,0,0,1,3.68,8.8c1.68,8,3.07,16,4.23,24.1,1.75,12.18,3.21,24.4,4.79,36.61.13,1,.26,2,.34,3a4.33,4.33,0,0,1-3.49,4.86,4,4,0,0,1-4.68-3.6c-.72-4.4-1.19-8.84-1.79-13.26C886.3,161.23,885.79,157.58,885.24,153.54Zm-5.59-37.71H879c-1.69,10.49-3.37,21-5.11,31.85l10.38-2.23C883,135.4,882.2,125.48,879.65,115.83Z"/><path class="cls-5" d="M959.89,122.72a81.52,81.52,0,0,1-7.62,34c-3.18,6.83-6.93,13.38-10.44,20.06a15.5,15.5,0,0,1-.9,1.43c-1.16,1.71-2.45,3.4-4.8,3a5.93,5.93,0,0,1-4.75-4.38,29.82,29.82,0,0,1-1.07-6.86c-.69-12-1.49-24.08-1.82-36.13a50.75,50.75,0,0,1,5.08-23.94c.46-1,1-1.9,1.52-2.81,5.77-9.63,16.16-6.41,20.11-.42A31,31,0,0,1,959.89,122.72ZM938,165.83l.51.17c.83-1.66,1.63-3.34,2.49-5,5.89-11.11,10.07-22.7,10.5-35.42.17-4.73-.34-9.31-2.62-13.51-1.92-3.54-5.06-3.61-7-.2a35.65,35.65,0,0,0-4.55,14.63C936.18,139.65,937.28,152.74,938,165.83Z"/><path class="cls-5" d="M760.48,165.68c.7-1.72,1.52-3.39,2.07-5.16A118.91,118.91,0,0,0,767.21,135c.83-9.95,1.53-19.91,2.3-29.86.22-2.88,1.83-4.55,4.3-4.5a3.92,3.92,0,0,1,4,4.35c-1.17,15.71-1.43,31.52-4.59,47a125.46,125.46,0,0,1-4.59,15.68,13.75,13.75,0,0,1-3.41,4.88,7.05,7.05,0,0,1-10.43-.11,21.42,21.42,0,0,1-5.6-11.14,128.46,128.46,0,0,1-2.49-19.38c-.39-11.86-.14-23.73-.09-35.6a17.32,17.32,0,0,1,.6-4.47,3.9,3.9,0,0,1,4.72-3c1.92.41,3,2.14,2.94,4.44-.34,15.76-.7,31.53.74,47.26.42,4.56,1.1,9.11,3.3,13.26.31.6.65,1.18,1,1.77Z"/><path class="cls-5" d="M1019.5,154.36a98.71,98.71,0,0,0-7.15-31.59c-2.05-5.08-3.9-10.22-3.79-15.83.07-4.2,1.7-7.51,5.6-9.27s7.47-.46,10.5,2.09c4.65,3.92,6.43,9.17,6.14,15.14a3.87,3.87,0,0,1-3.53,3.8,4,4,0,0,1-4.19-3.33c-.26-1.22-.28-2.49-.44-3.73a8.4,8.4,0,0,0-3.33-5.71,2.44,2.44,0,0,0-1.85-.49c-.32.08-.68,1.1-.57,1.61.74,3.61,1.17,7.36,2.5,10.75a117.94,117.94,0,0,1,8.21,32.59c.74,8.2-.36,16.09-5,23.11-2.51,3.79-6,6.07-10.76,5.71-2.94-.22-5.11-1.91-6.87-4.2-2.82-3.68-3.5-8-3.67-12.44a54.79,54.79,0,0,1,.13-7.9c.31-3,2.3-4.51,4.77-4.18s3.46,2.43,3.41,5.4a87.07,87.07,0,0,0,.65,11.06c.17,1.56.71,3.57,2.55,3.81s2.84-1.58,3.66-3.07C1018.7,163.62,1019.35,159.17,1019.5,154.36Z"/><path class="cls-5" d="M898.36,107.91a51.92,51.92,0,0,1,0-5.44c.27-2.48,2-4,4.09-3.83a4.13,4.13,0,0,1,3.78,4.22c.33,5.32.49,10.67.92,16,1.33,16.65,2.76,33.3,4.11,50,.13,1.63.77,2.35,2.46,2.2,1.5-.13,3-.08,4.52-.06,2.62,0,4.41,1.53,4.6,3.8a4,4,0,0,1-4,4.4,43.73,43.73,0,0,1-9.71-.43c-3.46-.64-5.2-3.42-5.72-6.76-.65-4.21-1.21-8.46-1.54-12.71-1.33-17.1-2.55-34.2-3.81-51.3Z"/><path class="cls-5" d="M801,120c-.76,17.21-1.39,32.83-2.19,48.45a13.27,13.27,0,0,1-1.71,5.44,3.61,3.61,0,0,1-4.66,1.32,4.19,4.19,0,0,1-2.37-4.14c.49-7.82,1.09-15.65,1.39-23.48.57-14.38,1-28.75,1.44-43.13a11.48,11.48,0,0,1,.34-2.41,3.94,3.94,0,0,1,4.47-3.15,4.05,4.05,0,0,1,3.29,4.21C801,109.22,801,115.37,801,120Z"/><path class="cls-6" d="M40.33,95.86c-.1-.86-.63-2.1-3.46-5.23-.38-.43-.81-.89-1.28-1.38,1.39,0,2.65-.12,3.69-.2,3.91-.31,4.56-.87,4.84-1.4a.93.93,0,0,0-.47-1.39c-.66-.35-1.91-.56-5.84-.74L35,85.42c.76-.77,1.46-1.49,2.06-2.13,2.67-2.87,3.26-4.05,3.32-4.8s-.41-1.07-1.26-1-2.09.63-5.23,3.46c-.39.35-.81.73-1.25,1.15,0-1.25-.1-2.39-.18-3.34-.31-3.91-.87-4.56-1.4-4.84a.93.93,0,0,0-1.39.47c-.35.66-.56,1.91-.74,5.84,0,.69-.06,1.48-.09,2.31-1.08-1-2.1-1.94-2.94-2.66-3-2.54-3.84-2.6-4.42-2.42a.92.92,0,0,0-.65,1.31c.23.72,1,1.75,3.61,4.65l1.7,1.83c-1,0-2,0-2.81.06-3.93.13-5.18.55-5.75,1s-.47,1.05.21,1.58,1.92,1,6.14,1.25l1.62.06c-.91,1-1.72,1.88-2.38,2.64-2.54,3-2.6,3.85-2.42,4.42A.92.92,0,0,0,22.1,97c.72-.22,1.75-1,4.65-3.61.59-.54,1.27-1.17,2-1.84,0,1.16,0,2.24.06,3.17.13,3.93.55,5.18,1,5.75s1.05.47,1.58-.21,1-1.92,1.25-6.14c0-.63.06-1.32.08-2.06.65.64,1.27,1.24,1.82,1.75,2.87,2.68,4,3.27,4.8,3.33S40.44,96.71,40.33,95.86Z"/><path class="cls-5" d="M620.59,68.09l.22,2.08A10.36,10.36,0,0,0,630,79.4l2.09.22-2.09.22a10.35,10.35,0,0,0-9.22,9.22l-.22,2.09-.22-2.09a10.36,10.36,0,0,0-9.23-9.22l-2.08-.22,2.08-.22a10.37,10.37,0,0,0,9.23-9.23Z"/><circle class="cls-7" cx="457.05" cy="265.1" r="23.82"/><ellipse class="cls-7" cx="738.02" cy="265.1" rx="30.38" ry="14.43" transform="translate(40.92 624.26) rotate(-47.02)"/><ellipse class="cls-8" cx="871.7" cy="265.1" rx="23.82" ry="16.69" transform="translate(116.14 774.28) rotate(-50.89)"/><ellipse class="cls-9" cx="379.19" cy="265.1" rx="26.17" ry="22.2" transform="translate(-65.7 392.11) rotate(-50.89)"/><path class="cls-10" d="M152.17,251H170a4,4,0,0,1,3.51,6.07l-8.91,15.44-8.91,15.43a4,4,0,0,1-7,0l-8.91-15.43-8.91-15.44a4,4,0,0,1,3.5-6.07Z"/><path class="cls-11" d="M149.61,254.67s3.64-17,20.64-13.36C170.25,241.31,166.61,258.31,149.61,254.67Z"/><path class="cls-8" d="M153.86,260.86s-17-3.64-13.36-20.64C140.5,240.22,157.5,243.86,153.86,260.86Z"/><circle class="cls-12" cx="216.62" cy="262.49" r="12.39"/><circle class="cls-12" cx="227.1" cy="277.95" r="12.39"/><circle class="cls-12" cx="239.56" cy="262.49" r="12.39"/><path class="cls-11" d="M225.74,254.3s3.63-17,20.63-13.36C246.37,240.94,242.73,257.94,225.74,254.3Z"/><path class="cls-8" d="M230,260.49s-17-3.64-13.36-20.64C216.63,239.85,233.62,243.49,230,260.49Z"/><ellipse class="cls-13" cx="806.56" cy="269.21" rx="15.12" ry="21.67"/><path class="cls-11" d="M808.31,260s-17-3.64-13.37-20.64C794.94,239.31,811.94,243,808.31,260Z"/><ellipse class="cls-14" cx="936.83" cy="269.21" rx="15.12" ry="21.67"/><path class="cls-11" d="M938.58,260s-17-3.64-13.37-20.64C925.21,239.31,942.21,243,938.58,260Z"/><circle class="cls-15" cx="303.64" cy="268.04" r="21.51"/><path class="cls-16" d="M301,254.5s3.64-17,20.64-13.35C321.65,241.15,318,258.14,301,254.5Z"/><circle class="cls-17" cx="534.88" cy="265.1" r="23.82"/><ellipse class="cls-18" cx="520.22" cy="265.97" rx="5.1" ry="2.55"/><ellipse class="cls-18" cx="550.81" cy="265.97" rx="5.1" ry="2.55"/><ellipse class="cls-18" cx="535.52" cy="248.12" rx="2.55" ry="5.1"/><ellipse class="cls-18" cx="535.52" cy="278.72" rx="2.55" ry="5.1"/><ellipse class="cls-18" cx="546.33" cy="255.15" rx="5.1" ry="2.55" transform="translate(-20.4 461.05) rotate(-45)"/><ellipse class="cls-18" cx="524.7" cy="276.79" rx="5.1" ry="2.55" transform="translate(-42.04 452.09) rotate(-45)"/><ellipse class="cls-18" cx="523.42" cy="253.88" rx="2.55" ry="5.1" transform="translate(-26.21 444.48) rotate(-45)"/><ellipse class="cls-18" cx="545.06" cy="275.51" rx="2.55" ry="5.1" transform="translate(-35.17 466.11) rotate(-45)"/><ellipse class="cls-19" cx="667.96" cy="265.1" rx="16.62" ry="23.82"/><ellipse class="cls-7" cx="605.58" cy="275.58" rx="15.12" ry="16.57"/><path class="cls-11" d="M600.52,265.23s3.64-17,20.64-13.36C621.16,251.87,617.52,268.87,600.52,265.23Z"/><path class="cls-8" d="M601.09,258.39s2.26-17.23,19.5-15C620.59,243.41,618.33,260.65,601.09,258.39Z"/><path class="cls-11" d="M604.77,258.67s-17-3.63-13.36-20.63C591.41,238,608.41,241.67,604.77,258.67Z"/><path class="cls-8" d="M607.3,266.69s-17.35,1.07-18.42-16.28C588.88,250.41,606.23,249.34,607.3,266.69Z"/><path class="cls-7" d="M1084.65,118.77c-7.8-.52-15.74-1.77-23.46-.12a1.7,1.7,0,0,0-.3,3.25c6.36,2.58,13.1,2.88,19.87,3.61,8,.86,15.57,1.82,23.61,1.14,2.59-.21,3-4.46.48-5.13C1098.07,119.74,1091.65,119.24,1084.65,118.77Z"/><path class="cls-20" d="M1103.64,51.61c-8.14,2.56-15,8.51-21.9,13.3a308.56,308.56,0,0,0-25,18.84,2.24,2.24,0,0,0,2.34,3.76,303.91,303.91,0,0,0,27.54-14.82c7.67-4.55,16-8.39,22-15C1111.63,54.27,1107,50.56,1103.64,51.61Z"/><path class="cls-21" d="M1051.51,1.8c-9.93,12.65-15.88,30.32-20.48,45.58-1.4,4.65,5,8.79,7.89,4.24,8.74-13.95,18.17-30.33,21.25-46.58C1061.11.08,1054.21-1.64,1051.51,1.8Z"/></g></g></svg>